{"title":"Angels &amp; Demons (2009) DVDRip[FILESHARING-VAULT.COM]","uid":5038847,"size":736207108,"categoryP":"video","categoryS":"movies","magnet":"?xt=urn:btih:89ed6cf31df47f463b897a01ef7abead9397d598&amp;dn=Angels+%26+Demons+%282009%29+DVDRip%5BFILESHARING-VAULT.COM%5D&amp;tr=udp%3A%2F%2Ftracker.openbittorrent.com%3A80&amp;tr=udp%3A%2F%2Fopen.demonii.com%3A1337&amp;tr=udp%3A%2F%2Ftracker.coppersurfer.tk%3A6969&amp;tr=udp%3A%2F%2Fexodus.desync.com%3A6969","seeders":0,"leechers":0,"uploader":"captainelliotspencer","files":2,"time":1249267681,"description":"Angels &amp; Demons (2009) DVDRip\n\nWriting library                  : VirtualDub build 31953/release\nOriginal source form             : MAX TORRENTZ\nCopyright                        : SIGISMUNT\n\nVideo\nFormat                           : MPEG-4 Visual\nFormat profile                   : Streaming Video[@]L1\nFormat settings, BVOP            : Yes\nFormat settings, QPel            : No\nFormat settings, GMC             : No warppoints\nFormat settings, Matrix          : Default (H.263)\nMuxing mode                      : Packed bitstream\nCodec ID                         : XVID\nCodec ID/Hint                    : XviD\nDuration                         : 2h 12mn\nBit rate                         : 630 Kbps\nWidth                            : 640 pixels\nHeight                           : 272 pixels\nDisplay aspect ratio             : 2.35\nFrame rate                       : 25.000 fps\nResolution                       : 24 bits\nColorimetry                      : 4:2:0\nScan type                        : Progressive\nBits/(Pixel*Frame)               : 0.145\nStream size                      : 596 MiB (85%)\nWriting library                  : XviD 1.2.1 (UTC 2008-12-04)\n\nAudio\nFormat                           : MPEG Audio\nFormat version                   : Version 1\nFormat profile                   : Layer 3\nCodec ID                         : 55\nCodec ID/Hint                    : MP3\nDuration                         : 2h 12mn\nBit rate mode                    : Variable\nBit rate                         : 99.7 Kbps\nChannel(s)                       : 2 channels\nSampling rate                    : 44.1 KHz\nResolution                       : 16 bits\nStream size                      : 94.3 MiB (13%)\nAlignment                        : Aligned on interleaves\nInterleave, duration             : 26 ms (0.65 video frame)\nInterleave, preload duration     : 393 ms\n\n\n--------------------------------------------------------------------------------\nVISIT US AT: &lt;a href=&quot;\nhttp://filesharing-vault.com&quot; rel=&quot;nofollow&quot; target=&quot;_NEW&quot;&gt;\nhttp://filesharing-vault.com&lt;/a&gt;\n\nCONTENT UPDATED DAILY!\n","torrent":{"xt":"urn:btih:89ed6cf31df47f463b897a01ef7abead9397d598","amp;dn":"Angels+%26+Demons+%282009%29+DVDRip%5BFILESHARING-VAULT.COM%5D","amp;tr":["udp%3A%2F%2Ftracker.openbittorrent.com%3A80","udp%3A%2F%2Fopen.demonii.com%3A1337","udp%3A%2F%2Ftracker.coppersurfer.tk%3A6969","udp%3A%2F%2Fexodus.desync.com%3A6969"],"infoHash":"89ed6cf31df47f463b897a01ef7abead9397d598","infoHashBuffer":{"type":"Buffer","data":[137,237,108,243,29,244,127,70,59,137,122,1,239,122,190,173,147,151,213,152]},"announce":[],"urlList":[]}}